<svg xmlns="http://www.w3.org/2000/svg" xmlns:xlink="http://www.w3.org/1999/xlink"><symbol fill="none" id="sprite-burger" viewBox="0 0 22 14"><path stroke="#F2994A" stroke-width="2" d="M0 1h22M0 7h22M0 13h22"/></symbol><use xlink:href="#sprite-burger" width="22" height="14" y="0"/><view id="sprite-burger-view" viewBox="0 0 22 14"/><symbol fill="none" id="sprite-phone" viewBox="0 0 24 24"><path fill="#5BC12C" d="M6.62 10.79c1.44 2.83 3.76 5.14 6.59 6.59l2.2-2.2a1 1 0 0 1 1.02-.24c1.12.371 2.33.57 3.57.57.55 0 1 .45 1 1V20c0 .55-.45 1-1 1-9.39 0-17-7.609-17-17 0-.55.45-1 1-1h3.5c.55 0 1 .45 1 1 0 1.25.2 2.45.57 3.57.11.35.03.74-.25 1.02z"/></symbol><use xlink:href="#sprite-phone" width="24" height="24" y="14"/><view id="sprite-phone-view" viewBox="0 14 24 24"/></svg>